<?xml version="1.0" encoding="UTF-8"?>
<svg xmlns="http://www.w3.org/2000/svg" version="1.1" viewBox="0 0 67.5 67.5">
  <defs>
    <style>
      .cls-1 {
        fill: #111;
      }

      .cls-2 {
        fill: #fcfcfc;
      }

      .cls-3 {
        fill: #fd0079;
      }
    </style>
  </defs>
  <!-- Generator: Adobe Illustrator 28.6.0, SVG Export Plug-In . SVG Version: 1.2.0 Build 709)  -->
  <g>
    <g id="FILMHOUSE">
      <path class="cls-3" d="M63.4,21.1c-2.6,4.5-5.2,8.9-7.9,13.4-.5.8-1,1.7-1.5,2.5-1.8,3.2-3.7,6.3-5.5,9.5-.4.7-.9,1.4-1.4,2.1,0,0-.1.2-.2.2-2.8,3.6-6.6,5.9-11.2,6.8-.4,0-.7,0-1.1.1h-17.6c-1.7,0-3.3-.2-4.7-1.4-2.1-2-2.6-5.1-1-7.8,1.8-3.1,3.5-6.1,5.3-9.1h4.9q1.4,0,1.4-1.4v-2.8q0-1.4-1.4-1.4h-1.6c.8-1.3,1.5-2.6,2.3-3.9,1.4-2.3,2.7-4.7,4.1-7,1.4-2.2,3-4,4.8-5.4,2.6-2,5.7-3.2,9.2-3.5h17.1c1.1,0,2.2,0,3.2.3,3.5,1.6,4.7,5.4,2.7,8.9Z"/>
      <path class="cls-2" d="M54,37v10.3q0,1.4-1.4,1.4h-4.2c-.7,0-1.1,0-1.2-.2.5-.6.9-1.3,1.4-2.1,1.8-3.1,3.7-6.3,5.5-9.5Z"/>
      <path class="cls-1" d="M54,20.3v16.7c-1.8,3.2-3.7,6.3-5.5,9.5-.4.7-.9,1.4-1.4,2.1-.2-.2-.2-.6-.2-1.3v-9.8q0-1.4-1.4-1.4h-8.5q-1.4,0-1.4,1.4v9.9q0,1.4-1.4,1.4h-4.2q-1.4,0-1.4-1.4v-27q0-1.4,1.4-1.4h4.2q1.4,0,1.4,1.4v8.6c0,1.4.1,1.4,1.4,1.4h8.5q1.4,0,1.4-1.5v-8.6q0-1.4,1.4-1.4h4.2q1.4,0,1.4,1.4Z"/>
      <path class="cls-1" d="M23,33.1v2.8q0,1.4-1.4,1.4h-4.9c1.1-1.9,2.2-3.8,3.4-5.7h1.6q1.4,0,1.4,1.4Z"/>
      <path class="cls-2" d="M24.4,20.3v2.9q0,1.4-1.4,1.4h-11.3c-1.4,0-1.4.4-1.4,1.6v4.2q0,1.4,1.4,1.4h8.4c-1.1,1.9-2.2,3.8-3.4,5.7h-5q-1.4,0-1.4,1.4v8.5q0,1.4-1.4,1.4h-4.2q-1.4,0-1.4-1.4v-27q0-1.4,1.4-1.4h18.4q1.4,0,1.4,1.4Z"/>
    </g>
  </g>
</svg>