<?xml version="1.0" encoding="UTF-8"?>
<svg xmlns="http://www.w3.org/2000/svg" version="1.1" viewBox="0 0 270.7 46.8">
  <defs>
    <style>
      .cls-1 {
        fill: #111;
      }

      .cls-2 {
        fill: #fcfcfc;
      }

      .cls-3 {
        fill: #fd0079;
      }
    </style>
  </defs>
  <g>
    <g id="FILMHOUSE">
      <path id="PINK-BG" class="cls-3" d="M262.3,1.4c1.1,0,2.2-.1,3.2.3,3.5,1.6,4.7,5.4,2.7,8.9-2.6,4.5-5.2,8.9-7.9,13.4-2.3,4-4.7,8-7,12-2.9,5-7.2,8-12.8,9.1-1.2.2-2.8.2-4.2.2h-66.7.2-68.3c-1.7,0-3.3-.2-4.7-1.4-2.1-2-2.6-5.1-1-7.8,3.6-6.3,7.3-12.5,11-18.7,1.4-2.3,2.7-4.7,4.1-7,3.5-5.7,8.6-8.8,15.3-9"/>
      <path id="E" class="cls-1" d="M229.6,9.9q0-1.4,1.4-1.4h18.5q1.3,0,1.3,1.4v2.9q0,1.4-1.3,1.4h-11.4q-1.4,0-1.4,1.5v2.8q0,1.4,1.4,1.4h9.9q1.5,0,1.5,1.4v4.3c0,1.5,0,1.4-1.5,1.4h-9.9c-1.4,0-1.4,0-1.4,1.4v2.8c0,1.4,0,1.4,1.4,1.4h11.4c1.3,0,1.3,0,1.3,1.4v2.8q0,1.4-1.3,1.4h-18.5q-1.4,0-1.4-1.4v-13.7"/>
      <path id="S" class="cls-1" d="M216,8.5c3.7,0,7.5.9,10.7,2.8.6.4.8.7.4,1.5-.7,1.4-1.4,2.7-2,4.1-.3.6-.6.6-1.2.3-2.3-1.3-4.7-2.1-7.3-2.5-1.1-.1-1.9-.2-2.9,0-.8.2-1.5.6-1.7,1.6-.2.9.2,1.7,1,2.2,1.1.8,2.4,1.3,3.6,1.6,1.8.6,3.6,1.1,5.4,1.8,3.2,1.3,5.3,3.6,5.4,7.2,0,3.5-1.5,6-4.6,7.6-4.8,2.3-9.6,1.9-14.4.2-1.9-.6-3.5-1.6-5.2-2.7-.6-.4-.8-.8-.4-1.5.7-1.3,1.4-2.5,2-3.9.3-.7.6-.8,1.4-.3,2.4,1.9,5.2,3.2,8.3,3.7,1.3.2,2.4.2,3.5-.2.8-.3,1.5-.8,1.6-1.8.2-1.1-.2-1.9-1-2.4-.6-.5-1.6-.9-3-1.3-2.3-.5-4.6-1.3-6.8-2.2-5.6-2.4-6.5-9.6-1.6-13.1,2.5-1.9,5.6-2.6,8.7-2.6"/>
      <path id="U" class="cls-1" d="M174.3,9.9q0-1.5,1.5-1.5h4.2c1.3,0,1.4,0,1.4,1.4v15.6c0,4.3,2.5,7.1,6.4,7.1s-.4,0,0,0c4.2,0,6.3-2.8,6.3-7.1v-15.6q0-1.4,1.4-1.4h4.3q1.4,0,1.4,1.4v17c-.5,6.3-4.6,10.7-10.9,11.3-3.2.3-6.4,0-9.4-1.4-4.2-2.1-6.4-5.5-6.6-9.9"/>
      <path id="O" class="cls-1" d="M156.7,8.5c-8.2,0-14.9,6.7-14.9,14.9s6.7,14.9,14.9,14.9,14.9-6.7,14.9-14.9-6.7-14.9-14.9-14.9ZM156.8,31.8c-4.7,0-8.4-3.7-8.4-8.4s3.7-8.4,8.4-8.4,8.4,3.7,8.4,8.4-3.7,8.4-8.4,8.4Z"/>
      <path id="H" class="cls-1" d="M138.9,36.8q0,1.4-1.4,1.4h-4.2q-1.4,0-1.4-1.5v-9.8q0-1.4-1.4-1.4h-8.5q-1.4,0-1.4,1.4v9.9q0,1.4-1.4,1.4h-4.2q-1.4,0-1.4-1.4V9.9q0-1.4,1.4-1.4h4.2q1.4,0,1.4,1.4v8.6c0,1.4.1,1.4,1.4,1.4h8.5q1.4,0,1.4-1.5v-8.6q0-1.4,1.4-1.4h4.2q1.4,0,1.4,1.4"/>
      <path id="M" class="cls-2" d="M65.2,36.8q0,1.4-1.4,1.4h-4.3q-1.4,0-1.4-1.4V9.9q0-1.4,1.4-1.4h5.7c1,0,1.4,1.4,1.4,1.4l7.1,15.6h0c1.7-3.8,3.5-7.4,5.1-11.1.8-1.7,1.2-2.8,1.9-4.5,0,0,.4-1.4,1.4-1.4h5.6q1.4,0,1.4,1.4v27q0,1.4-1.4,1.4h-4.2q-1.4,0-1.4-1.4v-17h0c-2,4.5-3.7,8.1-5.6,12.7,0,0-.5,1.4-1.4,1.4h-2.8c-1,0-1.5-1.4-1.5-1.4-1.7-3.9-3.9-8.8-5.6-12.7h0"/>
      <path id="L" class="cls-2" d="M35.4,9.9q0-1.4,1.4-1.4h4.3q1.4,0,1.4,1.4v20q0,1.3,1.4,1.3h9.9q1.4,0,1.4,1.4v4.2q0,1.4-1.4,1.4h-17q-1.4,0-1.4-1.4"/>
      <path id="I" class="cls-2" d="M25.5,23.4v-13.6q0-1.4,1.4-1.4h4.3q1.4,0,1.4,1.4v27q0,1.4-1.4,1.4h-4.3q-1.4,0-1.4-1.4v-13.4h0Z"/>
      <path id="F" class="cls-2" d="M1.4,9.9q0-1.4,1.4-1.4h18.4q1.4,0,1.4,1.4v2.9q0,1.4-1.4,1.4h-11.3c-1.4,0-1.4.4-1.4,1.6v4.2q0,1.4,1.4,1.4h9.9q1.4,0,1.4,1.4v2.8q0,1.4-1.4,1.4h-9.9q-1.4,0-1.4,1.4v8.5q0,1.4-1.4,1.4H2.8q-1.4,0-1.4-1.4"/>
    </g>
  </g>
</svg>

